<svg width="639.28906" height="147.75706" xmlns="http://www.w3.org/2000/svg">
 <metadata id="metadata8">image/svg+xml</metadata>
 <defs>
  <clipPath clipPathUnits="userSpaceOnUse" id="clipPath14">
   <path d="m0,0l841.89,0l0,595.28l-841.89,0l0,-595.28z" id="path12"/>
  </clipPath>
  <clipPath clipPathUnits="userSpaceOnUse" id="clipPath22">
   <path d="m0,595.28l841.89,0l0,-595.28l-841.89,0l0,595.28z" id="path20"/>
  </clipPath>
 </defs>
 <g>
  <title>background</title>
  <rect fill="none" id="canvas_background" height="602" width="802" y="-1" x="-1"/>
 </g>
 <g>
  <title>Layer 1</title>
  <g id="g10" transform="matrix(1.3333333,0,0,-1.3333333,-241.58867,467.77147) " clip-path="url(#clipPath14)">
   <g id="g16">
    <g id="g18" clip-path="url(#clipPath22)">
     <g id="g24">
      <path fill="#ffffff" fill-rule="nonzero" d="m417.3735,322.061l-0.263,1.535l-0.44,2.561l1.862,1.814l1.115,1.088c0.41,0.399 0.282,0.794 -0.285,0.876l-1.541,0.224l-2.573,0.374l-1.149,2.331l-0.689,1.397c-0.254,0.513 -0.669,0.513 -0.922,0l-0.69,-1.397l-1.15,-2.331l-2.571,-0.374l-1.542,-0.224c-0.567,-0.082 -0.695,-0.477 -0.285,-0.876l1.116,-1.088l1.861,-1.814l-0.176,-1.025l0,-0.001l-0.263,-1.535l-0.265,-1.536c-0.096,-0.564 0.24,-0.807 0.746,-0.541l1.939,1.02l1.741,0.914l1.739,-0.914l1.939,-1.02c0.508,-0.266 0.843,-0.023 0.746,0.542" id="path26"/>
     </g>
     <g id="g28">
      <path fill="#ffffff" fill-rule="nonzero" d="m231.1519,283.31931c-2.588,-1.766 -5.957,-2.648 -10.104,-2.648c-4.903,0 -8.828,0.754 -11.776,2.262c-0.823,0.411 -1.097,1.029 -0.823,1.851l1.44,3.908c0.308,0.96 0.943,1.252 1.903,0.875c2.4,-1.029 5.005,-1.543 7.816,-1.543c4.388,0 6.582,1.148 6.582,3.445c0,0.72 -0.317,1.38 -0.952,1.98c-0.634,0.6 -1.319,1.062 -2.056,1.389c-0.738,0.325 -1.877,0.762 -3.42,1.311c-1.371,0.48 -2.468,0.899 -3.291,1.259c-0.823,0.36 -1.783,0.874 -2.88,1.543c-1.096,0.668 -1.945,1.371 -2.545,2.108c-0.6,0.737 -1.114,1.688 -1.542,2.854c-0.429,1.166 -0.644,2.486 -0.644,3.96c0,3.393 1.158,5.939 3.472,7.635c2.314,1.697 5.648,2.546 10.001,2.546c4.217,0 7.662,-0.686 10.336,-2.057c0.857,-0.48 1.148,-1.097 0.874,-1.851l-1.44,-3.702c-0.343,-0.926 -0.977,-1.217 -1.902,-0.875c-2.091,0.72 -4.423,1.08 -6.994,1.08c-3.668,0 -5.502,-1.011 -5.502,-3.034c0,-0.445 0.112,-0.865 0.335,-1.259c0.222,-0.395 0.462,-0.712 0.719,-0.952c0.257,-0.24 0.72,-0.531 1.389,-0.874c0.668,-0.343 1.2,-0.6 1.594,-0.771c0.394,-0.171 1.088,-0.446 2.082,-0.823c1.235,-0.48 2.075,-0.805 2.52,-0.977c0.446,-0.171 1.183,-0.497 2.211,-0.977c1.029,-0.48 1.757,-0.892 2.185,-1.234c0.429,-0.343 0.986,-0.814 1.672,-1.414c0.686,-0.6 1.174,-1.217 1.465,-1.851c0.292,-0.635 0.557,-1.389 0.797,-2.263c0.24,-0.874 0.36,-1.825 0.36,-2.854c0,-3.599 -1.294,-6.282 -3.882,-8.047" id="path30"/>
     </g>
     <g id="g32">
      <path fill="#ffffff" fill-rule="nonzero" d="m252.3623,298.77151c2.331,0 4.011,0.429 5.04,1.285c1.028,0.858 1.542,2.314 1.542,4.371c0,2.023 -0.514,3.462 -1.542,4.32c-1.029,0.857 -2.709,1.285 -5.04,1.285l-4.525,0l0,-11.261l4.525,0zm-11.775,-17.586c-0.995,0 -1.491,0.497 -1.491,1.491l0,33.321c0,0.994 0.496,1.491 1.491,1.491l11.878,0c5.142,0 8.981,-1.02 11.519,-3.059c2.536,-2.04 3.805,-5.374 3.805,-10.002c0,-4.628 -1.26,-7.961 -3.78,-10.001c-2.52,-2.04 -6.368,-3.06 -11.544,-3.06l-4.628,0l0,-8.69c0,-0.994 -0.497,-1.491 -1.491,-1.491l-5.759,0z" id="path34"/>
     </g>
     <g id="g36">
      <path fill="#ffffff" fill-rule="nonzero" d="m281.00339,296.0972l0,-7.507l13.781,0c1.028,0 1.542,-0.497 1.542,-1.492l0,-4.37c0,-1.028 -0.514,-1.543 -1.542,-1.543l-20.98,0c-0.994,0 -1.491,0.497 -1.491,1.491l0,33.321c0,0.995 0.497,1.492 1.491,1.492l20.774,0c0.994,0 1.491,-0.497 1.491,-1.492l0,-4.422c0,-1.028 -0.497,-1.542 -1.491,-1.542l-13.575,0l0,-6.84l12.855,0c0.96,0 1.44,-0.497 1.44,-1.491l0,-4.113c0,-0.994 -0.48,-1.492 -1.44,-1.492l-12.855,0z" id="path38"/>
     </g>
     <g id="g40">
      <path fill="#ffffff" fill-rule="nonzero" d="m323.32281,289.61819c0.96,0.446 1.646,0.189 2.057,-0.771l1.748,-3.754c0.343,-0.72 0.069,-1.371 -0.823,-1.954c-2.605,-1.679 -6.016,-2.52 -10.232,-2.52c-5.382,0 -9.573,1.552 -12.573,4.654c-2.999,3.102 -4.499,7.79 -4.499,14.064c0,6.239 1.474,10.927 4.422,14.064c2.949,3.136 7.079,4.704 12.393,4.704c4.113,0 7.473,-0.84 10.078,-2.519c0.891,-0.583 1.166,-1.234 0.823,-1.954l-1.697,-3.702c-0.377,-0.892 -1.063,-1.132 -2.057,-0.72c-1.714,0.788 -3.616,1.182 -5.707,1.182c-3.188,0 -5.529,-0.882 -7.019,-2.648c-1.492,-1.765 -2.237,-4.568 -2.237,-8.407c0,-3.84 0.762,-6.642 2.288,-8.407c1.526,-1.766 3.934,-2.648 7.224,-2.648c1.955,0 3.892,0.445 5.811,1.336" id="path42"/>
     </g>
     <g id="g44">
      <path fill="#ffffff" fill-rule="nonzero" d="m331.55029,315.9971c0,0.995 0.498,1.492 1.491,1.492l5.811,0c1.029,0 1.543,-0.497 1.543,-1.492l0,-33.321c0,-0.993 -0.514,-1.491 -1.543,-1.491l-5.811,0c-0.993,0 -1.491,0.498 -1.491,1.491l0,33.321z" id="path46"/>
     </g>
     <g id="g48">
      <path fill="#ffffff" fill-rule="nonzero" d="m365.02539,295.4805l-4.165,13.318l-0.103,0l-4.319,-13.318l8.587,0zm-0.617,22.008c0.891,0 1.492,-0.463 1.8,-1.388l11.467,-33.167c0.171,-0.514 0.146,-0.934 -0.077,-1.26c-0.223,-0.325 -0.574,-0.488 -1.054,-0.488l-6.119,0c-0.892,0 -1.492,0.462 -1.8,1.388l-1.903,5.554l-11.929,0l-1.852,-5.554c-0.308,-0.926 -0.891,-1.388 -1.748,-1.388l-6.17,0c-0.48,0 -0.832,0.163 -1.055,0.488c-0.223,0.326 -0.249,0.746 -0.077,1.26l11.467,33.167c0.309,0.925 0.909,1.388 1.8,1.388l7.25,0z" id="path50"/>
     </g>
     <g id="g52">
      <path fill="#ffffff" fill-rule="nonzero" d="m389.75879,289.0527l12.804,0c0.994,0 1.491,-0.497 1.491,-1.491l0,-4.885c0,-0.994 -0.497,-1.491 -1.491,-1.491l-20.157,0c-0.994,0 -1.491,0.497 -1.491,1.491l0,33.32c0,0.995 0.497,1.492 1.491,1.492l5.811,0c1.028,0 1.542,-0.497 1.542,-1.492l0,-26.944z" id="path54"/>
     </g>
     <g id="g56">
      <path fill="#ffffff" fill-rule="nonzero" d="m408.52689,315.9971c0,0.995 0.497,1.492 1.492,1.492l5.81,0c1.028,0 1.542,-0.497 1.542,-1.492l0,-33.321c0,-0.993 -0.514,-1.491 -1.542,-1.491l-5.81,0c-0.995,0 -1.492,0.498 -1.492,1.491l0,33.321z" id="path58"/>
     </g>
     <g id="g60">
      <path fill="#42ba49" fill-rule="nonzero" d="m444.7012,283.31931c-2.588,-1.766 -5.956,-2.648 -10.104,-2.648c-4.902,0 -8.827,0.754 -11.776,2.262c-0.822,0.411 -1.097,1.029 -0.822,1.851l1.439,3.908c0.309,0.96 0.943,1.252 1.903,0.875c2.4,-1.029 5.006,-1.543 7.816,-1.543c4.388,0 6.582,1.148 6.582,3.445c0,0.72 -0.316,1.38 -0.951,1.98c-0.635,0.6 -1.319,1.062 -2.057,1.389c-0.737,0.325 -1.877,0.762 -3.42,1.311c-1.371,0.48 -2.467,0.899 -3.291,1.259c-0.823,0.36 -1.782,0.874 -2.88,1.543c-1.096,0.668 -1.945,1.371 -2.544,2.108c-0.6,0.737 -1.115,1.688 -1.543,2.854c-0.429,1.166 -0.643,2.486 -0.643,3.96c0,3.393 1.157,5.939 3.471,7.635c2.314,1.697 5.648,2.546 10.002,2.546c4.216,0 7.662,-0.686 10.335,-2.057c0.857,-0.48 1.148,-1.097 0.875,-1.851l-1.441,-3.702c-0.343,-0.926 -0.976,-1.217 -1.902,-0.875c-2.091,0.72 -4.422,1.08 -6.993,1.08c-3.668,0 -5.502,-1.011 -5.502,-3.034c0,-0.445 0.111,-0.865 0.334,-1.259c0.222,-0.395 0.463,-0.712 0.719,-0.952c0.257,-0.24 0.721,-0.531 1.389,-0.874c0.668,-0.343 1.2,-0.6 1.594,-0.771c0.394,-0.171 1.089,-0.446 2.083,-0.823c1.234,-0.48 2.074,-0.805 2.519,-0.977c0.446,-0.171 1.183,-0.497 2.211,-0.977c1.029,-0.48 1.757,-0.892 2.186,-1.234c0.429,-0.343 0.985,-0.814 1.671,-1.414c0.686,-0.6 1.174,-1.217 1.466,-1.851c0.291,-0.635 0.556,-1.389 0.796,-2.263c0.241,-0.874 0.361,-1.825 0.361,-2.854c0,-3.599 -1.294,-6.282 -3.883,-8.047" id="path62"/>
     </g>
     <g id="g64">
      <path fill="#42ba49" fill-rule="nonzero" d="m449.6113,315.9971c0,0.995 0.497,1.492 1.491,1.492l24.014,0c1.028,0 1.543,-0.497 1.543,-1.492l0,-4.833c0,-1.029 -0.515,-1.543 -1.543,-1.543l-7.559,0l0,-26.945c0,-0.993 -0.514,-1.491 -1.543,-1.491l-5.758,0c-1.029,0 -1.543,0.498 -1.543,1.491l0,26.945l-7.611,0c-0.994,0 -1.491,0.514 -1.491,1.543l0,4.833z" id="path66"/>
     </g>
     <g id="g68">
      <path fill="#42ba49" fill-rule="nonzero" d="m488.94821,296.0972l0,-7.507l13.781,0c1.029,0 1.542,-0.497 1.542,-1.492l0,-4.37c0,-1.028 -0.513,-1.543 -1.542,-1.543l-20.979,0c-0.995,0 -1.492,0.497 -1.492,1.491l0,33.321c0,0.995 0.497,1.492 1.492,1.492l20.773,0c0.994,0 1.491,-0.497 1.491,-1.492l0,-4.422c0,-1.028 -0.497,-1.542 -1.491,-1.542l-13.575,0l0,-6.84l12.855,0c0.96,0 1.44,-0.497 1.44,-1.491l0,-4.113c0,-0.994 -0.48,-1.492 -1.44,-1.492l-12.855,0z" id="path70"/>
     </g>
     <g id="g72">
      <path fill="#42ba49" fill-rule="nonzero" d="m522.16602,299.8511c2.365,0 4.054,0.403 5.065,1.208c1.011,0.806 1.517,2.1 1.517,3.883c0,1.886 -0.497,3.205 -1.491,3.959c-0.994,0.754 -2.674,1.132 -5.039,1.132l-4.834,0l0,-10.182l4.782,0zm0.154,17.638c5.109,0 8.93,-0.986 11.467,-2.957c2.537,-1.972 3.805,-5.168 3.805,-9.59c0,-5.691 -2.656,-9.342 -7.97,-10.953l7.713,-10.901c0.343,-0.446 0.42,-0.874 0.231,-1.286c-0.188,-0.411 -0.556,-0.617 -1.105,-0.617l-5.965,0c-0.892,0 -1.594,0.395 -2.107,1.183l-7.097,10.387l-3.908,0l0,-10.079c0,-0.993 -0.497,-1.491 -1.491,-1.491l-5.759,0c-0.994,0 -1.491,0.498 -1.491,1.491l0,33.321c0,0.995 0.497,1.492 1.491,1.492l12.186,0z" id="path74"/>
     </g>
     <g id="g76">
      <path fill="#42ba49" fill-rule="nonzero" d="m555.53809,299.8511c2.366,0 4.054,0.403 5.065,1.208c1.011,0.806 1.517,2.1 1.517,3.883c0,1.886 -0.497,3.205 -1.491,3.959c-0.994,0.754 -2.674,1.132 -5.039,1.132l-4.834,0l0,-10.182l4.782,0zm0.154,17.638c5.109,0 8.931,-0.986 11.467,-2.957c2.537,-1.972 3.806,-5.168 3.806,-9.59c0,-5.691 -2.657,-9.342 -7.971,-10.953l7.713,-10.901c0.344,-0.446 0.42,-0.874 0.231,-1.286c-0.187,-0.411 -0.556,-0.617 -1.105,-0.617l-5.965,0c-0.892,0 -1.594,0.395 -2.107,1.183l-7.097,10.387l-3.908,0l0,-10.079c0,-0.993 -0.497,-1.491 -1.491,-1.491l-5.759,0c-0.995,0 -1.491,0.498 -1.491,1.491l0,33.321c0,0.995 0.496,1.492 1.491,1.492l12.186,0z" id="path78"/>
     </g>
     <g id="g80">
      <path fill="#42ba49" fill-rule="nonzero" d="m584.07617,296.0972l0,-7.507l13.781,0c1.03,0 1.543,-0.497 1.543,-1.492l0,-4.37c0,-1.028 -0.513,-1.543 -1.543,-1.543l-20.979,0c-0.994,0 -1.491,0.497 -1.491,1.491l0,33.321c0,0.995 0.497,1.492 1.491,1.492l20.774,0c0.994,0 1.49,-0.497 1.49,-1.492l0,-4.422c0,-1.028 -0.496,-1.542 -1.49,-1.542l-13.576,0l0,-6.84l12.855,0c0.96,0 1.441,-0.497 1.441,-1.491l0,-4.113c0,-0.994 -0.481,-1.492 -1.441,-1.492l-12.855,0z" id="path82"/>
     </g>
     <g id="g84">
      <path fill="#42ba49" fill-rule="nonzero" d="m633.54303,282.6763c0,-0.994 -0.514,-1.491 -1.542,-1.491l-5.604,0c-0.858,0 -1.475,0.326 -1.852,0.977l-12.238,20.517l0,-20.003c0,-0.994 -0.497,-1.491 -1.492,-1.491l-5.553,0c-0.994,0 -1.491,0.497 -1.491,1.491l0,33.321c0,0.994 0.497,1.492 1.491,1.492l5.605,0c0.891,0 1.526,-0.326 1.903,-0.978l12.238,-20.517l0,20.003c0,0.994 0.496,1.492 1.491,1.492l5.502,0c1.028,0 1.542,-0.498 1.542,-1.492l0,-33.321z" id="path86"/>
     </g>
     <g id="g88">
      <path fill="#ffffff" fill-rule="nonzero" d="m424.58789,271.86569l0,-8.053l1.111,0c1.256,0 2.168,0.295 2.738,0.883c0.568,0.588 0.852,1.663 0.852,3.223c0,1.494 -0.287,2.526 -0.863,3.094c-0.574,0.568 -1.49,0.853 -2.746,0.853l-1.092,0zm-2.836,-11.028c-0.383,0 -0.575,0.192 -0.575,0.575l0,12.853c0,0.383 0.192,0.575 0.575,0.575l4.066,0c2.314,0 4.043,-0.545 5.187,-1.636c1.144,-1.091 1.716,-2.853 1.716,-5.286c0,-2.512 -0.569,-4.321 -1.706,-5.425c-1.138,-1.104 -2.864,-1.656 -5.177,-1.656l-4.086,0z" id="path90"/>
     </g>
     <g id="g92">
      <path fill="#ffffff" fill-rule="nonzero" d="m440.59369,266.58981l0,-2.896l5.316,0c0.397,0 0.595,-0.192 0.595,-0.575l0,-1.686c0,-0.397 -0.198,-0.595 -0.595,-0.595l-8.092,0c-0.383,0 -0.576,0.192 -0.576,0.575l0,12.853c0,0.383 0.193,0.575 0.576,0.575l8.013,0c0.383,0 0.575,-0.192 0.575,-0.575l0,-1.706c0,-0.397 -0.192,-0.595 -0.575,-0.595l-5.237,0l0,-2.638l4.959,0c0.37,0 0.556,-0.192 0.556,-0.575l0,-1.587c0,-0.383 -0.186,-0.575 -0.556,-0.575l-4.959,0z" id="path94"/>
     </g>
     <g id="g96">
      <path fill="#ffffff" fill-rule="nonzero" d="m464.71191,263.436c0.912,0 1.547,0.125 1.904,0.377c0.357,0.251 0.535,0.687 0.535,1.309c0,0.595 -0.181,1.022 -0.545,1.279c-0.364,0.258 -0.989,0.387 -1.874,0.387l-2.301,0l0,-3.352l2.281,0zm-0.06,5.771c0.781,0 1.336,0.123 1.666,0.368c0.331,0.244 0.497,0.638 0.497,1.18c0,0.529 -0.163,0.909 -0.487,1.14c-0.324,0.231 -0.888,0.348 -1.695,0.348l-2.202,0l0,-3.036l2.221,0zm-4.998,-8.369c-0.383,0 -0.575,0.192 -0.575,0.575l0,12.853c0,0.383 0.192,0.575 0.575,0.575l5.058,0c1.852,0 3.213,-0.291 4.086,-0.873c0.873,-0.582 1.309,-1.527 1.309,-2.836c0,-0.754 -0.175,-1.376 -0.526,-1.865c-0.35,-0.489 -0.79,-0.819 -1.318,-0.992c1.507,-0.449 2.261,-1.56 2.261,-3.332c0,-2.737 -1.878,-4.105 -5.633,-4.105l-5.237,0z" id="path98"/>
     </g>
     <g id="g100">
      <path fill="#ffffff" fill-rule="nonzero" d="m478.37701,266.58981l0,-2.896l5.316,0c0.397,0 0.595,-0.192 0.595,-0.575l0,-1.686c0,-0.397 -0.198,-0.595 -0.595,-0.595l-8.092,0c-0.384,0 -0.576,0.192 -0.576,0.575l0,12.853c0,0.383 0.192,0.575 0.576,0.575l8.012,0c0.384,0 0.576,-0.192 0.576,-0.575l0,-1.706c0,-0.397 -0.192,-0.595 -0.576,-0.595l-5.236,0l0,-2.638l4.959,0c0.37,0 0.556,-0.192 0.556,-0.575l0,-1.587c0,-0.383 -0.186,-0.575 -0.556,-0.575l-4.959,0z" id="path102"/>
     </g>
     <g id="g104">
      <path fill="#ffffff" fill-rule="nonzero" d="m497.03119,261.6611c-0.998,-0.681 -2.298,-1.021 -3.897,-1.021c-1.891,0 -3.406,0.29 -4.542,0.872c-0.318,0.158 -0.423,0.397 -0.318,0.714l0.556,1.507c0.119,0.371 0.363,0.483 0.733,0.338c0.926,-0.397 1.931,-0.596 3.015,-0.596c1.693,0 2.539,0.443 2.539,1.33c0,0.277 -0.122,0.532 -0.367,0.763c-0.244,0.231 -0.509,0.41 -0.793,0.535c-0.284,0.126 -0.724,0.295 -1.32,0.506c-0.528,0.186 -0.952,0.347 -1.269,0.486c-0.317,0.139 -0.688,0.337 -1.11,0.595c-0.423,0.258 -0.751,0.53 -0.982,0.813c-0.231,0.285 -0.43,0.652 -0.596,1.101c-0.165,0.45 -0.248,0.959 -0.248,1.528c0,1.309 0.447,2.291 1.34,2.945c0.892,0.654 2.178,0.982 3.858,0.982c1.626,0 2.955,-0.265 3.986,-0.794c0.331,-0.185 0.443,-0.423 0.338,-0.714l-0.556,-1.428c-0.133,-0.357 -0.377,-0.469 -0.734,-0.337c-0.807,0.278 -1.705,0.417 -2.697,0.417c-1.415,0 -2.123,-0.39 -2.123,-1.17c0,-0.173 0.043,-0.334 0.129,-0.486c0.086,-0.153 0.179,-0.275 0.278,-0.367c0.099,-0.093 0.278,-0.206 0.536,-0.337c0.258,-0.133 0.462,-0.232 0.614,-0.298c0.152,-0.066 0.42,-0.172 0.804,-0.318c0.475,-0.185 0.8,-0.31 0.972,-0.377c0.171,-0.065 0.456,-0.191 0.852,-0.377c0.398,-0.185 0.678,-0.343 0.844,-0.475c0.165,-0.132 0.38,-0.314 0.644,-0.545c0.265,-0.232 0.452,-0.47 0.565,-0.715c0.113,-0.244 0.215,-0.535 0.307,-0.872c0.093,-0.337 0.139,-0.705 0.139,-1.101c0,-1.389 -0.499,-2.423 -1.497,-3.104" id="path106"/>
     </g>
     <g id="g108">
      <path fill="#ffffff" fill-rule="nonzero" d="m501.72171,274.26559c0,0.383 0.191,0.575 0.575,0.575l9.263,0c0.396,0 0.595,-0.192 0.595,-0.575l0,-1.865c0,-0.396 -0.199,-0.594 -0.595,-0.594l-2.916,0l0,-10.394c0,-0.383 -0.198,-0.575 -0.595,-0.575l-2.222,0c-0.396,0 -0.594,0.192 -0.594,0.575l0,10.394l-2.936,0c-0.384,0 -0.575,0.198 -0.575,0.594l0,1.865z" id="path110"/>
     </g>
     <g id="g112">
      <path fill="#ffffff" fill-rule="nonzero" d="m519.69043,266.58981l0,-2.896l5.316,0c0.397,0 0.595,-0.192 0.595,-0.575l0,-1.686c0,-0.397 -0.198,-0.595 -0.595,-0.595l-8.092,0c-0.383,0 -0.576,0.192 -0.576,0.575l0,12.853c0,0.383 0.193,0.575 0.576,0.575l8.013,0c0.383,0 0.575,-0.192 0.575,-0.575l0,-1.706c0,-0.397 -0.192,-0.595 -0.575,-0.595l-5.237,0l0,-2.638l4.959,0c0.37,0 0.556,-0.192 0.556,-0.575l0,-1.587c0,-0.383 -0.186,-0.575 -0.556,-0.575l-4.959,0z" id="path114"/>
     </g>
     <g id="g116">
      <path fill="#ffffff" fill-rule="nonzero" d="m537.38281,274.26559c0,0.383 0.191,0.575 0.575,0.575l9.263,0c0.396,0 0.595,-0.192 0.595,-0.575l0,-1.865c0,-0.396 -0.199,-0.594 -0.595,-0.594l-2.916,0l0,-10.394c0,-0.383 -0.198,-0.575 -0.596,-0.575l-2.221,0c-0.396,0 -0.595,0.192 -0.595,0.575l0,10.394l-2.935,0c-0.384,0 -0.575,0.198 -0.575,0.594l0,1.865z" id="path118"/>
     </g>
     <g id="g120">
      <path fill="#ffffff" fill-rule="nonzero" d="m555.35162,266.58981l0,-2.896l5.315,0c0.397,0 0.596,-0.192 0.596,-0.575l0,-1.686c0,-0.397 -0.199,-0.595 -0.596,-0.595l-8.091,0c-0.384,0 -0.576,0.192 -0.576,0.575l0,12.853c0,0.383 0.192,0.575 0.576,0.575l8.012,0c0.384,0 0.576,-0.192 0.576,-0.575l0,-1.706c0,-0.397 -0.192,-0.595 -0.576,-0.595l-5.236,0l0,-2.638l4.959,0c0.37,0 0.556,-0.192 0.556,-0.575l0,-1.587c0,-0.383 -0.186,-0.575 -0.556,-0.575l-4.959,0z" id="path122"/>
     </g>
     <g id="g124">
      <path fill="#ffffff" fill-rule="nonzero" d="m574.00488,261.6611c-0.997,-0.681 -2.297,-1.021 -3.896,-1.021c-1.891,0 -3.406,0.29 -4.542,0.872c-0.318,0.158 -0.424,0.397 -0.318,0.714l0.556,1.507c0.119,0.371 0.363,0.483 0.733,0.338c0.926,-0.397 1.931,-0.596 3.015,-0.596c1.692,0 2.539,0.443 2.539,1.33c0,0.277 -0.122,0.532 -0.367,0.763c-0.244,0.231 -0.509,0.41 -0.793,0.535c-0.284,0.126 -0.725,0.295 -1.32,0.506c-0.529,0.186 -0.952,0.347 -1.269,0.486c-0.317,0.139 -0.688,0.337 -1.11,0.595c-0.423,0.258 -0.751,0.53 -0.983,0.813c-0.231,0.285 -0.43,0.652 -0.595,1.101c-0.165,0.45 -0.248,0.959 -0.248,1.528c0,1.309 0.447,2.291 1.339,2.945c0.893,0.654 2.179,0.982 3.859,0.982c1.626,0 2.954,-0.265 3.986,-0.794c0.331,-0.185 0.443,-0.423 0.337,-0.714l-0.555,-1.428c-0.133,-0.357 -0.377,-0.469 -0.734,-0.337c-0.807,0.278 -1.706,0.417 -2.697,0.417c-1.416,0 -2.124,-0.39 -2.124,-1.17c0,-0.173 0.043,-0.334 0.129,-0.486c0.087,-0.153 0.179,-0.275 0.279,-0.367c0.098,-0.093 0.277,-0.206 0.536,-0.337c0.257,-0.133 0.462,-0.232 0.614,-0.298c0.152,-0.066 0.42,-0.172 0.804,-0.318c0.475,-0.185 0.8,-0.31 0.971,-0.377c0.172,-0.065 0.457,-0.191 0.853,-0.377c0.397,-0.185 0.678,-0.343 0.843,-0.475c0.166,-0.132 0.38,-0.314 0.644,-0.545c0.265,-0.232 0.453,-0.47 0.566,-0.715c0.113,-0.244 0.215,-0.535 0.307,-0.872c0.093,-0.337 0.139,-0.705 0.139,-1.101c0,-1.389 -0.499,-2.423 -1.498,-3.104" id="path126"/>
     </g>
     <g id="g128">
      <path fill="#ffffff" fill-rule="nonzero" d="m578.69629,274.26559c0,0.383 0.191,0.575 0.575,0.575l9.263,0c0.396,0 0.595,-0.192 0.595,-0.575l0,-1.865c0,-0.396 -0.199,-0.594 -0.595,-0.594l-2.916,0l0,-10.394c0,-0.383 -0.198,-0.575 -0.595,-0.575l-2.222,0c-0.396,0 -0.594,0.192 -0.594,0.575l0,10.394l-2.936,0c-0.384,0 -0.575,0.198 -0.575,0.594l0,1.865z" id="path130"/>
     </g>
     <g id="g132">
      <path fill="#ffffff" fill-rule="nonzero" d="m596.66498,266.58981l0,-2.896l5.316,0c0.397,0 0.595,-0.192 0.595,-0.575l0,-1.686c0,-0.397 -0.198,-0.595 -0.595,-0.595l-8.092,0c-0.384,0 -0.576,0.192 -0.576,0.575l0,12.853c0,0.383 0.192,0.575 0.576,0.575l8.012,0c0.384,0 0.576,-0.192 0.576,-0.575l0,-1.706c0,-0.397 -0.192,-0.595 -0.576,-0.595l-5.236,0l0,-2.638l4.959,0c0.37,0 0.556,-0.192 0.556,-0.575l0,-1.587c0,-0.383 -0.186,-0.575 -0.556,-0.575l-4.959,0z" id="path134"/>
     </g>
     <g id="g136">
      <path fill="#ffffff" fill-rule="nonzero" d="m612.27441,268.0376c0.913,0 1.564,0.155 1.954,0.466c0.391,0.311 0.585,0.81 0.585,1.497c0,0.728 -0.191,1.237 -0.575,1.528c-0.383,0.291 -1.031,0.436 -1.943,0.436l-1.865,0l0,-3.927l1.844,0zm0.06,6.803c1.97,0 3.444,-0.38 4.422,-1.14c0.979,-0.761 1.468,-1.994 1.468,-3.7c0,-2.194 -1.024,-3.603 -3.074,-4.224l2.976,-4.205c0.131,-0.172 0.162,-0.337 0.088,-0.495c-0.072,-0.16 -0.214,-0.239 -0.425,-0.239l-2.302,0c-0.343,0 -0.614,0.152 -0.813,0.456l-2.737,4.007l-1.507,0l0,-3.888c0,-0.383 -0.192,-0.575 -0.576,-0.575l-2.221,0c-0.383,0 -0.575,0.192 -0.575,0.575l0,12.853c0,0.383 0.192,0.575 0.575,0.575l4.701,0z" id="path138"/>
     </g>
     <g id="g140">
      <path fill="#ffffff" fill-rule="nonzero" d="m630.9873,261.6611c-0.998,-0.681 -2.297,-1.021 -3.896,-1.021c-1.892,0 -3.406,0.29 -4.542,0.872c-0.318,0.158 -0.424,0.397 -0.318,0.714l0.555,1.507c0.119,0.371 0.364,0.483 0.734,0.338c0.926,-0.397 1.93,-0.596 3.015,-0.596c1.692,0 2.539,0.443 2.539,1.33c0,0.277 -0.123,0.532 -0.367,0.763c-0.245,0.231 -0.509,0.41 -0.794,0.535c-0.284,0.126 -0.724,0.295 -1.319,0.506c-0.529,0.186 -0.952,0.347 -1.269,0.486c-0.317,0.139 -0.688,0.337 -1.11,0.595c-0.424,0.258 -0.751,0.53 -0.983,0.813c-0.231,0.285 -0.43,0.652 -0.595,1.101c-0.165,0.45 -0.248,0.959 -0.248,1.528c0,1.309 0.447,2.291 1.339,2.945c0.893,0.654 2.179,0.982 3.858,0.982c1.627,0 2.955,-0.265 3.987,-0.794c0.33,-0.185 0.442,-0.423 0.337,-0.714l-0.556,-1.428c-0.132,-0.357 -0.376,-0.469 -0.733,-0.337c-0.807,0.278 -1.706,0.417 -2.697,0.417c-1.416,0 -2.124,-0.39 -2.124,-1.17c0,-0.173 0.043,-0.334 0.129,-0.486c0.086,-0.153 0.179,-0.275 0.279,-0.367c0.098,-0.093 0.277,-0.206 0.535,-0.337c0.258,-0.133 0.463,-0.232 0.615,-0.298c0.151,-0.066 0.42,-0.172 0.804,-0.318c0.475,-0.185 0.799,-0.31 0.971,-0.377c0.171,-0.065 0.457,-0.191 0.853,-0.377c0.397,-0.185 0.678,-0.343 0.843,-0.475c0.165,-0.132 0.38,-0.314 0.644,-0.545c0.265,-0.232 0.453,-0.47 0.566,-0.715c0.112,-0.244 0.215,-0.535 0.307,-0.872c0.092,-0.337 0.139,-0.705 0.139,-1.101c0,-1.389 -0.499,-2.423 -1.498,-3.104" id="path142"/>
     </g>
    </g>
   </g>
  </g>
 </g>
</svg>