<?xml version="1.0" encoding="UTF-8" standalone="no"?><svg   xmlns:dc="http://purl.org/dc/elements/1.1/"   xmlns:cc="http://creativecommons.org/ns#"   xmlns:rdf="http://www.w3.org/1999/02/22-rdf-syntax-ns#"   xmlns:svg="http://www.w3.org/2000/svg"   xmlns="http://www.w3.org/2000/svg"   viewBox="0 0 639.28906 147.75706"   height="147.75706"   width="639.28906"   xml:space="preserve"   id="svg2"   version="1.1"><metadata     id="metadata8"><rdf:RDF><cc:Work         rdf:about=""><dc:format>image/svg+xml</dc:format><dc:type           rdf:resource="http://purl.org/dc/dcmitype/StillImage" /></cc:Work></rdf:RDF></metadata><defs     id="defs6"><clipPath       id="clipPath14"       clipPathUnits="userSpaceOnUse"><path         id="path12"         d="M 0,0 H 841.89 V 595.28 H 0 Z" /></clipPath><clipPath       id="clipPath22"       clipPathUnits="userSpaceOnUse"><path         id="path20"         d="M 0,595.28 H 841.89 V 0 H 0 Z" /></clipPath></defs><g     clip-path="url(#clipPath14)"     transform="matrix(1.3333333,0,0,-1.3333333,-241.58867,467.77147)"     id="g10"><g       id="g16"><g         clip-path="url(#clipPath22)"         id="g18"><g           transform="translate(417.3735,322.061)"           id="g24"><path             id="path26"             style="fill:#293b81;fill-opacity:1;fill-rule:nonzero;stroke:none"             d="M 0,0 -0.263,1.535 -0.703,4.096 1.159,5.91 2.274,6.998 C 2.684,7.397 2.556,7.792 1.989,7.874 L 0.448,8.098 -2.125,8.472 -3.274,10.803 -3.963,12.2 c -0.254,0.513 -0.669,0.513 -0.922,0 L -5.575,10.803 -6.725,8.472 -9.296,8.098 -10.838,7.874 C -11.405,7.792 -11.533,7.397 -11.123,6.998 L -10.007,5.91 -8.146,4.096 -8.322,3.071 V 3.07 L -8.585,1.535 -8.85,-0.001 c -0.096,-0.564 0.24,-0.807 0.746,-0.541 l 1.939,1.02 1.741,0.914 1.739,-0.914 1.939,-1.02 C -0.238,-0.808 0.097,-0.565 0,0" /></g><g           transform="translate(231.1519,283.3193)"           id="g28"><path             id="path30"             style="fill:#293b81;fill-opacity:1;fill-rule:nonzero;stroke:none"             d="m 0,0 c -2.588,-1.766 -5.957,-2.648 -10.104,-2.648 -4.903,0 -8.828,0.754 -11.776,2.262 -0.823,0.411 -1.097,1.029 -0.823,1.851 l 1.44,3.908 c 0.308,0.96 0.943,1.252 1.903,0.875 2.4,-1.029 5.005,-1.543 7.816,-1.543 4.388,0 6.582,1.148 6.582,3.445 0,0.72 -0.317,1.38 -0.952,1.98 -0.634,0.6 -1.319,1.062 -2.056,1.389 -0.738,0.325 -1.877,0.762 -3.42,1.311 -1.371,0.48 -2.468,0.899 -3.291,1.259 -0.823,0.36 -1.783,0.874 -2.88,1.543 -1.096,0.668 -1.945,1.371 -2.545,2.108 -0.6,0.737 -1.114,1.688 -1.542,2.854 -0.429,1.166 -0.644,2.486 -0.644,3.96 0,3.393 1.158,5.939 3.472,7.635 2.314,1.697 5.648,2.546 10.001,2.546 4.217,0 7.662,-0.686 10.336,-2.057 0.857,-0.48 1.148,-1.097 0.874,-1.851 l -1.44,-3.702 c -0.343,-0.926 -0.977,-1.217 -1.902,-0.875 -2.091,0.72 -4.423,1.08 -6.994,1.08 -3.668,0 -5.502,-1.011 -5.502,-3.034 0,-0.445 0.112,-0.865 0.335,-1.259 0.222,-0.395 0.462,-0.712 0.719,-0.952 0.257,-0.24 0.72,-0.531 1.389,-0.874 0.668,-0.343 1.2,-0.6 1.594,-0.771 0.394,-0.171 1.088,-0.446 2.082,-0.823 1.235,-0.48 2.075,-0.805 2.52,-0.977 0.446,-0.171 1.183,-0.497 2.211,-0.977 1.029,-0.48 1.757,-0.892 2.185,-1.234 0.429,-0.343 0.986,-0.814 1.672,-1.414 0.686,-0.6 1.174,-1.217 1.465,-1.851 0.292,-0.635 0.557,-1.389 0.797,-2.263 0.24,-0.874 0.36,-1.825 0.36,-2.854 C 3.882,4.448 2.588,1.765 0,0" /></g><g           transform="translate(252.3623,298.7715)"           id="g32"><path             id="path34"             style="fill:#293b81;fill-opacity:1;fill-rule:nonzero;stroke:none"             d="M 0,0 C 2.331,0 4.011,0.429 5.04,1.285 6.068,2.143 6.582,3.599 6.582,5.656 6.582,7.679 6.068,9.118 5.04,9.976 4.011,10.833 2.331,11.261 0,11.261 H -4.525 V 0 Z m -11.775,-17.586 c -0.995,0 -1.491,0.497 -1.491,1.491 v 33.321 c 0,0.994 0.496,1.491 1.491,1.491 H 0.103 c 5.142,0 8.981,-1.02 11.519,-3.059 2.536,-2.04 3.805,-5.374 3.805,-10.002 0,-4.628 -1.26,-7.961 -3.78,-10.001 -2.52,-2.04 -6.368,-3.06 -11.544,-3.06 h -4.628 v -8.69 c 0,-0.994 -0.497,-1.491 -1.491,-1.491 z" /></g><g           transform="translate(281.0034,296.0972)"           id="g36"><path             id="path38"             style="fill:#293b81;fill-opacity:1;fill-rule:nonzero;stroke:none"             d="m 0,0 v -7.507 h 13.781 c 1.028,0 1.542,-0.497 1.542,-1.492 v -4.37 c 0,-1.028 -0.514,-1.543 -1.542,-1.543 h -20.98 c -0.994,0 -1.491,0.497 -1.491,1.491 V 19.9 c 0,0.995 0.497,1.492 1.491,1.492 h 20.774 c 0.994,0 1.491,-0.497 1.491,-1.492 v -4.422 c 0,-1.028 -0.497,-1.542 -1.491,-1.542 H 0 v -6.84 h 12.855 c 0.96,0 1.44,-0.497 1.44,-1.491 V 1.492 C 14.295,0.498 13.815,0 12.855,0 Z" /></g><g           transform="translate(323.3228,289.6182)"           id="g40"><path             id="path42"             style="fill:#293b81;fill-opacity:1;fill-rule:nonzero;stroke:none"             d="m 0,0 c 0.96,0.446 1.646,0.189 2.057,-0.771 l 1.748,-3.754 c 0.343,-0.72 0.069,-1.371 -0.823,-1.954 -2.605,-1.679 -6.016,-2.52 -10.232,-2.52 -5.382,0 -9.573,1.552 -12.573,4.654 -2.999,3.102 -4.499,7.79 -4.499,14.064 0,6.239 1.474,10.927 4.422,14.064 2.949,3.136 7.079,4.704 12.393,4.704 4.113,0 7.473,-0.84 10.078,-2.519 0.891,-0.583 1.166,-1.234 0.823,-1.954 L 1.697,20.312 C 1.32,19.42 0.634,19.18 -0.36,19.592 c -1.714,0.788 -3.616,1.182 -5.707,1.182 -3.188,0 -5.529,-0.882 -7.019,-2.648 -1.492,-1.765 -2.237,-4.568 -2.237,-8.407 0,-3.84 0.762,-6.642 2.288,-8.407 1.526,-1.766 3.934,-2.648 7.224,-2.648 1.955,0 3.892,0.445 5.811,1.336" /></g><g           transform="translate(331.5503,315.9971)"           id="g44"><path             id="path46"             style="fill:#293b81;fill-opacity:1;fill-rule:nonzero;stroke:none"             d="M 0,0 C 0,0.995 0.498,1.492 1.491,1.492 H 7.302 C 8.331,1.492 8.845,0.995 8.845,0 v -33.321 c 0,-0.993 -0.514,-1.491 -1.543,-1.491 H 1.491 C 0.498,-34.812 0,-34.314 0,-33.321 Z" /></g><g           transform="translate(365.0254,295.4805)"           id="g48"><path             id="path50"             style="fill:#293b81;fill-opacity:1;fill-rule:nonzero;stroke:none"             d="M 0,0 -4.165,13.318 H -4.268 L -8.587,0 Z m -0.617,22.008 c 0.891,0 1.492,-0.463 1.8,-1.388 L 12.65,-12.547 c 0.171,-0.514 0.146,-0.934 -0.077,-1.26 -0.223,-0.325 -0.574,-0.488 -1.054,-0.488 H 5.4 c -0.892,0 -1.492,0.462 -1.8,1.388 l -1.903,5.554 h -11.929 l -1.852,-5.554 c -0.308,-0.926 -0.891,-1.388 -1.748,-1.388 h -6.17 c -0.48,0 -0.832,0.163 -1.055,0.488 -0.223,0.326 -0.249,0.746 -0.077,1.26 L -9.667,20.62 c 0.309,0.925 0.909,1.388 1.8,1.388 z" /></g><g           transform="translate(389.7588,289.0527)"           id="g52"><path             id="path54"             style="fill:#293b81;fill-opacity:1;fill-rule:nonzero;stroke:none"             d="m 0,0 h 12.804 c 0.994,0 1.491,-0.497 1.491,-1.491 v -4.885 c 0,-0.994 -0.497,-1.491 -1.491,-1.491 H -7.353 c -0.994,0 -1.491,0.497 -1.491,1.491 v 33.32 c 0,0.995 0.497,1.492 1.491,1.492 h 5.811 C -0.514,28.436 0,27.939 0,26.944 Z" /></g><g           transform="translate(408.5269,315.9971)"           id="g56"><path             id="path58"             style="fill:#293b81;fill-opacity:1;fill-rule:nonzero;stroke:none"             d="m 0,0 c 0,0.995 0.497,1.492 1.492,1.492 h 5.81 C 8.33,1.492 8.844,0.995 8.844,0 v -33.321 c 0,-0.993 -0.514,-1.491 -1.542,-1.491 H 1.492 C 0.497,-34.812 0,-34.314 0,-33.321 Z" /></g><g           transform="translate(444.7012,283.3193)"           id="g60"><path             id="path62"             style="fill:#42ba49;fill-opacity:1;fill-rule:nonzero;stroke:none"             d="m 0,0 c -2.588,-1.766 -5.956,-2.648 -10.104,-2.648 -4.902,0 -8.827,0.754 -11.776,2.262 -0.822,0.411 -1.097,1.029 -0.822,1.851 l 1.439,3.908 c 0.309,0.96 0.943,1.252 1.903,0.875 2.4,-1.029 5.006,-1.543 7.816,-1.543 4.388,0 6.582,1.148 6.582,3.445 0,0.72 -0.316,1.38 -0.951,1.98 -0.635,0.6 -1.319,1.062 -2.057,1.389 -0.737,0.325 -1.877,0.762 -3.42,1.311 -1.371,0.48 -2.467,0.899 -3.291,1.259 -0.823,0.36 -1.782,0.874 -2.88,1.543 -1.096,0.668 -1.945,1.371 -2.544,2.108 -0.6,0.737 -1.115,1.688 -1.543,2.854 -0.429,1.166 -0.643,2.486 -0.643,3.96 0,3.393 1.157,5.939 3.471,7.635 2.314,1.697 5.648,2.546 10.002,2.546 4.216,0 7.662,-0.686 10.335,-2.057 0.857,-0.48 1.148,-1.097 0.875,-1.851 L 0.951,27.125 c -0.343,-0.926 -0.976,-1.217 -1.902,-0.875 -2.091,0.72 -4.422,1.08 -6.993,1.08 -3.668,0 -5.502,-1.011 -5.502,-3.034 0,-0.445 0.111,-0.865 0.334,-1.259 0.222,-0.395 0.463,-0.712 0.719,-0.952 0.257,-0.24 0.721,-0.531 1.389,-0.874 0.668,-0.343 1.2,-0.6 1.594,-0.771 0.394,-0.171 1.089,-0.446 2.083,-0.823 1.234,-0.48 2.074,-0.805 2.519,-0.977 0.446,-0.171 1.183,-0.497 2.211,-0.977 1.029,-0.48 1.757,-0.892 2.186,-1.234 0.429,-0.343 0.985,-0.814 1.671,-1.414 0.686,-0.6 1.174,-1.217 1.466,-1.851 C 3.017,12.529 3.282,11.775 3.522,10.901 3.763,10.027 3.883,9.076 3.883,8.047 3.883,4.448 2.589,1.765 0,0" /></g><g           transform="translate(449.6113,315.9971)"           id="g64"><path             id="path66"             style="fill:#42ba49;fill-opacity:1;fill-rule:nonzero;stroke:none"             d="m 0,0 c 0,0.995 0.497,1.492 1.491,1.492 h 24.014 c 1.028,0 1.543,-0.497 1.543,-1.492 v -4.833 c 0,-1.029 -0.515,-1.543 -1.543,-1.543 h -7.559 v -26.945 c 0,-0.993 -0.514,-1.491 -1.543,-1.491 h -5.758 c -1.029,0 -1.543,0.498 -1.543,1.491 V -6.376 H 1.491 C 0.497,-6.376 0,-5.862 0,-4.833 Z" /></g><g           transform="translate(488.9482,296.0972)"           id="g68"><path             id="path70"             style="fill:#42ba49;fill-opacity:1;fill-rule:nonzero;stroke:none"             d="m 0,0 v -7.507 h 13.781 c 1.029,0 1.542,-0.497 1.542,-1.492 v -4.37 c 0,-1.028 -0.513,-1.543 -1.542,-1.543 H -7.198 c -0.995,0 -1.492,0.497 -1.492,1.491 V 19.9 c 0,0.995 0.497,1.492 1.492,1.492 h 20.773 c 0.994,0 1.491,-0.497 1.491,-1.492 v -4.422 c 0,-1.028 -0.497,-1.542 -1.491,-1.542 H 0 v -6.84 h 12.855 c 0.96,0 1.44,-0.497 1.44,-1.491 V 1.492 C 14.295,0.498 13.815,0 12.855,0 Z" /></g><g           transform="translate(522.166,299.8511)"           id="g72"><path             id="path74"             style="fill:#42ba49;fill-opacity:1;fill-rule:nonzero;stroke:none"             d="m 0,0 c 2.365,0 4.054,0.403 5.065,1.208 1.011,0.806 1.517,2.1 1.517,3.883 0,1.886 -0.497,3.205 -1.491,3.959 -0.994,0.754 -2.674,1.132 -5.039,1.132 H -4.782 L -4.782,0 Z m 0.154,17.638 c 5.109,0 8.93,-0.986 11.467,-2.957 2.537,-1.972 3.805,-5.168 3.805,-9.59 0,-5.691 -2.656,-9.342 -7.97,-10.953 l 7.713,-10.901 c 0.343,-0.446 0.42,-0.874 0.231,-1.286 -0.188,-0.411 -0.556,-0.617 -1.105,-0.617 H 8.33 c -0.892,0 -1.594,0.395 -2.107,1.183 l -7.097,10.387 h -3.908 v -10.079 c 0,-0.993 -0.497,-1.491 -1.491,-1.491 h -5.759 c -0.994,0 -1.491,0.498 -1.491,1.491 v 33.321 c 0,0.995 0.497,1.492 1.491,1.492 z" /></g><g           transform="translate(555.5381,299.8511)"           id="g76"><path             id="path78"             style="fill:#42ba49;fill-opacity:1;fill-rule:nonzero;stroke:none"             d="m 0,0 c 2.366,0 4.054,0.403 5.065,1.208 1.011,0.806 1.517,2.1 1.517,3.883 0,1.886 -0.497,3.205 -1.491,3.959 -0.994,0.754 -2.674,1.132 -5.039,1.132 H -4.782 L -4.782,0 Z m 0.154,17.638 c 5.109,0 8.931,-0.986 11.467,-2.957 2.537,-1.972 3.806,-5.168 3.806,-9.59 0,-5.691 -2.657,-9.342 -7.971,-10.953 l 7.713,-10.901 c 0.344,-0.446 0.42,-0.874 0.231,-1.286 -0.187,-0.411 -0.556,-0.617 -1.105,-0.617 H 8.33 c -0.892,0 -1.594,0.395 -2.107,1.183 l -7.097,10.387 h -3.908 v -10.079 c 0,-0.993 -0.497,-1.491 -1.491,-1.491 h -5.759 c -0.995,0 -1.491,0.498 -1.491,1.491 v 33.321 c 0,0.995 0.496,1.492 1.491,1.492 z" /></g><g           transform="translate(584.0762,296.0972)"           id="g80"><path             id="path82"             style="fill:#42ba49;fill-opacity:1;fill-rule:nonzero;stroke:none"             d="m 0,0 v -7.507 h 13.781 c 1.03,0 1.543,-0.497 1.543,-1.492 v -4.37 c 0,-1.028 -0.513,-1.543 -1.543,-1.543 H -7.198 c -0.994,0 -1.491,0.497 -1.491,1.491 V 19.9 c 0,0.995 0.497,1.492 1.491,1.492 h 20.774 c 0.994,0 1.49,-0.497 1.49,-1.492 v -4.422 c 0,-1.028 -0.496,-1.542 -1.49,-1.542 H 0 v -6.84 h 12.855 c 0.96,0 1.441,-0.497 1.441,-1.491 V 1.492 C 14.296,0.498 13.815,0 12.855,0 Z" /></g><g           transform="translate(633.543,282.6763)"           id="g84"><path             id="path86"             style="fill:#42ba49;fill-opacity:1;fill-rule:nonzero;stroke:none"             d="m 0,0 c 0,-0.994 -0.514,-1.491 -1.542,-1.491 h -5.604 c -0.858,0 -1.475,0.326 -1.852,0.977 L -21.236,20.003 V 0 c 0,-0.994 -0.497,-1.491 -1.492,-1.491 h -5.553 c -0.994,0 -1.491,0.497 -1.491,1.491 v 33.321 c 0,0.994 0.497,1.492 1.491,1.492 h 5.605 c 0.891,0 1.526,-0.326 1.903,-0.978 L -8.535,13.318 v 20.003 c 0,0.994 0.496,1.492 1.491,1.492 h 5.502 C -0.514,34.813 0,34.315 0,33.321 Z" /></g><g           transform="translate(424.5879,271.8657)"           id="g88"><path             id="path90"             style="fill:#293b81;fill-opacity:1;fill-rule:nonzero;stroke:none"             d="m 0,0 v -8.053 h 1.111 c 1.256,0 2.168,0.295 2.738,0.883 0.568,0.588 0.852,1.663 0.852,3.223 0,1.494 -0.287,2.526 -0.863,3.094 C 3.264,-0.285 2.348,0 1.092,0 Z m -2.836,-11.028 c -0.383,0 -0.575,0.192 -0.575,0.575 V 2.4 c 0,0.383 0.192,0.575 0.575,0.575 H 1.23 c 2.314,0 4.043,-0.545 5.187,-1.636 1.144,-1.091 1.716,-2.853 1.716,-5.286 0,-2.512 -0.569,-4.321 -1.706,-5.425 -1.138,-1.104 -2.864,-1.656 -5.177,-1.656 z" /></g><g           transform="translate(440.5937,266.5898)"           id="g92"><path             id="path94"             style="fill:#293b81;fill-opacity:1;fill-rule:nonzero;stroke:none"             d="m 0,0 v -2.896 h 5.316 c 0.397,0 0.595,-0.192 0.595,-0.575 v -1.686 c 0,-0.397 -0.198,-0.595 -0.595,-0.595 h -8.092 c -0.383,0 -0.576,0.192 -0.576,0.575 V 7.676 c 0,0.383 0.193,0.575 0.576,0.575 h 8.013 c 0.383,0 0.575,-0.192 0.575,-0.575 V 5.97 C 5.812,5.573 5.62,5.375 5.237,5.375 H 0 V 2.737 h 4.959 c 0.37,0 0.556,-0.192 0.556,-0.575 V 0.575 C 5.515,0.192 5.329,0 4.959,0 Z" /></g><g           transform="translate(464.7119,263.436)"           id="g96"><path             id="path98"             style="fill:#293b81;fill-opacity:1;fill-rule:nonzero;stroke:none"             d="M 0,0 C 0.912,0 1.547,0.125 1.904,0.377 2.261,0.628 2.439,1.064 2.439,1.686 2.439,2.281 2.258,2.708 1.894,2.965 1.53,3.223 0.905,3.352 0.02,3.352 H -2.281 V 0 Z m -0.06,5.771 c 0.781,0 1.336,0.123 1.666,0.368 0.331,0.244 0.497,0.638 0.497,1.18 0,0.529 -0.163,0.909 -0.487,1.14 C 1.292,8.69 0.728,8.807 -0.079,8.807 H -2.281 V 5.771 Z m -4.998,-8.369 c -0.383,0 -0.575,0.192 -0.575,0.575 V 10.83 c 0,0.383 0.192,0.575 0.575,0.575 H 0 c 1.852,0 3.213,-0.291 4.086,-0.873 C 4.959,9.95 5.395,9.005 5.395,7.696 5.395,6.942 5.22,6.32 4.869,5.831 4.519,5.342 4.079,5.012 3.551,4.839 5.058,4.39 5.812,3.279 5.812,1.507 5.812,-1.23 3.934,-2.598 0.179,-2.598 Z" /></g><g           transform="translate(478.377,266.5898)"           id="g100"><path             id="path102"             style="fill:#293b81;fill-opacity:1;fill-rule:nonzero;stroke:none"             d="m 0,0 v -2.896 h 5.316 c 0.397,0 0.595,-0.192 0.595,-0.575 v -1.686 c 0,-0.397 -0.198,-0.595 -0.595,-0.595 h -8.092 c -0.384,0 -0.576,0.192 -0.576,0.575 V 7.676 c 0,0.383 0.192,0.575 0.576,0.575 h 8.012 c 0.384,0 0.576,-0.192 0.576,-0.575 V 5.97 C 5.812,5.573 5.62,5.375 5.236,5.375 H 0 V 2.737 h 4.959 c 0.37,0 0.556,-0.192 0.556,-0.575 V 0.575 C 5.515,0.192 5.329,0 4.959,0 Z" /></g><g           transform="translate(497.0312,261.6611)"           id="g104"><path             id="path106"             style="fill:#293b81;fill-opacity:1;fill-rule:nonzero;stroke:none"             d="m 0,0 c -0.998,-0.681 -2.298,-1.021 -3.897,-1.021 -1.891,0 -3.406,0.29 -4.542,0.872 -0.318,0.158 -0.423,0.397 -0.318,0.714 l 0.556,1.507 c 0.119,0.371 0.363,0.483 0.733,0.338 0.926,-0.397 1.931,-0.596 3.015,-0.596 1.693,0 2.539,0.443 2.539,1.33 0,0.277 -0.122,0.532 -0.367,0.763 -0.244,0.231 -0.509,0.41 -0.793,0.535 -0.284,0.126 -0.724,0.295 -1.32,0.506 -0.528,0.186 -0.952,0.347 -1.269,0.486 -0.317,0.139 -0.688,0.337 -1.11,0.595 -0.423,0.258 -0.751,0.53 -0.982,0.813 -0.231,0.285 -0.43,0.652 -0.596,1.101 -0.165,0.45 -0.248,0.959 -0.248,1.528 0,1.309 0.447,2.291 1.34,2.945 0.892,0.654 2.178,0.982 3.858,0.982 1.626,0 2.955,-0.265 3.986,-0.794 0.331,-0.185 0.443,-0.423 0.338,-0.714 L 0.367,10.462 C 0.234,10.105 -0.01,9.993 -0.367,10.125 c -0.807,0.278 -1.705,0.417 -2.697,0.417 -1.415,0 -2.123,-0.39 -2.123,-1.17 0,-0.173 0.043,-0.334 0.129,-0.486 C -4.972,8.733 -4.879,8.611 -4.78,8.519 -4.681,8.426 -4.502,8.313 -4.244,8.182 -3.986,8.049 -3.782,7.95 -3.63,7.884 -3.478,7.818 -3.21,7.712 -2.826,7.566 -2.351,7.381 -2.026,7.256 -1.854,7.189 -1.683,7.124 -1.398,6.998 -1.002,6.812 -0.604,6.627 -0.324,6.469 -0.158,6.337 0.007,6.205 0.222,6.023 0.486,5.792 0.751,5.56 0.938,5.322 1.051,5.077 1.164,4.833 1.266,4.542 1.358,4.205 1.451,3.868 1.497,3.5 1.497,3.104 1.497,1.715 0.998,0.681 0,0" /></g><g           transform="translate(501.7217,274.2656)"           id="g108"><path             id="path110"             style="fill:#293b81;fill-opacity:1;fill-rule:nonzero;stroke:none"             d="m 0,0 c 0,0.383 0.191,0.575 0.575,0.575 h 9.263 c 0.396,0 0.595,-0.192 0.595,-0.575 v -1.865 c 0,-0.396 -0.199,-0.594 -0.595,-0.594 H 6.922 v -10.394 c 0,-0.383 -0.198,-0.575 -0.595,-0.575 H 4.105 c -0.396,0 -0.594,0.192 -0.594,0.575 V -2.459 H 0.575 C 0.191,-2.459 0,-2.261 0,-1.865 Z" /></g><g           transform="translate(519.6904,266.5898)"           id="g112"><path             id="path114"             style="fill:#293b81;fill-opacity:1;fill-rule:nonzero;stroke:none"             d="m 0,0 v -2.896 h 5.316 c 0.397,0 0.595,-0.192 0.595,-0.575 v -1.686 c 0,-0.397 -0.198,-0.595 -0.595,-0.595 h -8.092 c -0.383,0 -0.576,0.192 -0.576,0.575 V 7.676 c 0,0.383 0.193,0.575 0.576,0.575 h 8.013 c 0.383,0 0.575,-0.192 0.575,-0.575 V 5.97 C 5.812,5.573 5.62,5.375 5.237,5.375 H 0 V 2.737 h 4.959 c 0.37,0 0.556,-0.192 0.556,-0.575 V 0.575 C 5.515,0.192 5.329,0 4.959,0 Z" /></g><g           transform="translate(537.3828,274.2656)"           id="g116"><path             id="path118"             style="fill:#293b81;fill-opacity:1;fill-rule:nonzero;stroke:none"             d="m 0,0 c 0,0.383 0.191,0.575 0.575,0.575 h 9.263 c 0.396,0 0.595,-0.192 0.595,-0.575 v -1.865 c 0,-0.396 -0.199,-0.594 -0.595,-0.594 H 6.922 v -10.394 c 0,-0.383 -0.198,-0.575 -0.596,-0.575 H 4.105 c -0.396,0 -0.595,0.192 -0.595,0.575 V -2.459 H 0.575 C 0.191,-2.459 0,-2.261 0,-1.865 Z" /></g><g           transform="translate(555.3516,266.5898)"           id="g120"><path             id="path122"             style="fill:#293b81;fill-opacity:1;fill-rule:nonzero;stroke:none"             d="m 0,0 v -2.896 h 5.315 c 0.397,0 0.596,-0.192 0.596,-0.575 v -1.686 c 0,-0.397 -0.199,-0.595 -0.596,-0.595 h -8.091 c -0.384,0 -0.576,0.192 -0.576,0.575 V 7.676 c 0,0.383 0.192,0.575 0.576,0.575 h 8.012 c 0.384,0 0.576,-0.192 0.576,-0.575 V 5.97 C 5.812,5.573 5.62,5.375 5.236,5.375 H 0 V 2.737 h 4.959 c 0.37,0 0.556,-0.192 0.556,-0.575 V 0.575 C 5.515,0.192 5.329,0 4.959,0 Z" /></g><g           transform="translate(574.0049,261.6611)"           id="g124"><path             id="path126"             style="fill:#293b81;fill-opacity:1;fill-rule:nonzero;stroke:none"             d="m 0,0 c -0.997,-0.681 -2.297,-1.021 -3.896,-1.021 -1.891,0 -3.406,0.29 -4.542,0.872 -0.318,0.158 -0.424,0.397 -0.318,0.714 L -8.2,2.072 c 0.119,0.371 0.363,0.483 0.733,0.338 0.926,-0.397 1.931,-0.596 3.015,-0.596 1.692,0 2.539,0.443 2.539,1.33 0,0.277 -0.122,0.532 -0.367,0.763 -0.244,0.231 -0.509,0.41 -0.793,0.535 -0.284,0.126 -0.725,0.295 -1.32,0.506 -0.529,0.186 -0.952,0.347 -1.269,0.486 -0.317,0.139 -0.688,0.337 -1.11,0.595 -0.423,0.258 -0.751,0.53 -0.983,0.813 -0.231,0.285 -0.43,0.652 -0.595,1.101 -0.165,0.45 -0.248,0.959 -0.248,1.528 0,1.309 0.447,2.291 1.339,2.945 0.893,0.654 2.179,0.982 3.859,0.982 1.626,0 2.954,-0.265 3.986,-0.794 0.331,-0.185 0.443,-0.423 0.337,-0.714 L 0.368,10.462 c -0.133,-0.357 -0.377,-0.469 -0.734,-0.337 -0.807,0.278 -1.706,0.417 -2.697,0.417 -1.416,0 -2.124,-0.39 -2.124,-1.17 0,-0.173 0.043,-0.334 0.129,-0.486 0.087,-0.153 0.179,-0.275 0.279,-0.367 0.098,-0.093 0.277,-0.206 0.536,-0.337 0.257,-0.133 0.462,-0.232 0.614,-0.298 0.152,-0.066 0.42,-0.172 0.804,-0.318 0.475,-0.185 0.8,-0.31 0.971,-0.377 C -1.682,7.124 -1.397,6.998 -1.001,6.812 -0.604,6.627 -0.323,6.469 -0.158,6.337 0.008,6.205 0.222,6.023 0.486,5.792 0.751,5.56 0.939,5.322 1.052,5.077 1.165,4.833 1.267,4.542 1.359,4.205 1.452,3.868 1.498,3.5 1.498,3.104 1.498,1.715 0.999,0.681 0,0" /></g><g           transform="translate(578.6963,274.2656)"           id="g128"><path             id="path130"             style="fill:#293b81;fill-opacity:1;fill-rule:nonzero;stroke:none"             d="m 0,0 c 0,0.383 0.191,0.575 0.575,0.575 h 9.263 c 0.396,0 0.595,-0.192 0.595,-0.575 v -1.865 c 0,-0.396 -0.199,-0.594 -0.595,-0.594 H 6.922 v -10.394 c 0,-0.383 -0.198,-0.575 -0.595,-0.575 H 4.105 c -0.396,0 -0.594,0.192 -0.594,0.575 V -2.459 H 0.575 C 0.191,-2.459 0,-2.261 0,-1.865 Z" /></g><g           transform="translate(596.665,266.5898)"           id="g132"><path             id="path134"             style="fill:#293b81;fill-opacity:1;fill-rule:nonzero;stroke:none"             d="m 0,0 v -2.896 h 5.316 c 0.397,0 0.595,-0.192 0.595,-0.575 v -1.686 c 0,-0.397 -0.198,-0.595 -0.595,-0.595 h -8.092 c -0.384,0 -0.576,0.192 -0.576,0.575 V 7.676 c 0,0.383 0.192,0.575 0.576,0.575 h 8.012 c 0.384,0 0.576,-0.192 0.576,-0.575 V 5.97 C 5.812,5.573 5.62,5.375 5.236,5.375 H 0 V 2.737 h 4.959 c 0.37,0 0.556,-0.192 0.556,-0.575 V 0.575 C 5.515,0.192 5.329,0 4.959,0 Z" /></g><g           transform="translate(612.2744,268.0376)"           id="g136"><path             id="path138"             style="fill:#293b81;fill-opacity:1;fill-rule:nonzero;stroke:none"             d="M 0,0 C 0.913,0 1.564,0.155 1.954,0.466 2.345,0.777 2.539,1.276 2.539,1.963 2.539,2.691 2.348,3.2 1.964,3.491 1.581,3.782 0.933,3.927 0.021,3.927 H -1.844 V 0 Z m 0.06,6.803 c 1.97,0 3.444,-0.38 4.422,-1.14 C 5.461,4.902 5.95,3.669 5.95,1.963 5.95,-0.231 4.926,-1.64 2.876,-2.261 L 5.852,-6.466 C 5.983,-6.638 6.014,-6.803 5.94,-6.961 5.868,-7.121 5.726,-7.2 5.515,-7.2 H 3.213 C 2.87,-7.2 2.599,-7.048 2.4,-6.744 l -2.737,4.007 h -1.507 v -3.888 c 0,-0.383 -0.192,-0.575 -0.576,-0.575 h -2.221 c -0.383,0 -0.575,0.192 -0.575,0.575 V 6.228 c 0,0.383 0.192,0.575 0.575,0.575 z" /></g><g           transform="translate(630.9873,261.6611)"           id="g140"><path             id="path142"             style="fill:#293b81;fill-opacity:1;fill-rule:nonzero;stroke:none"             d="m 0,0 c -0.998,-0.681 -2.297,-1.021 -3.896,-1.021 -1.892,0 -3.406,0.29 -4.542,0.872 -0.318,0.158 -0.424,0.397 -0.318,0.714 l 0.555,1.507 c 0.119,0.371 0.364,0.483 0.734,0.338 0.926,-0.397 1.93,-0.596 3.015,-0.596 1.692,0 2.539,0.443 2.539,1.33 0,0.277 -0.123,0.532 -0.367,0.763 -0.245,0.231 -0.509,0.41 -0.794,0.535 -0.284,0.126 -0.724,0.295 -1.319,0.506 -0.529,0.186 -0.952,0.347 -1.269,0.486 -0.317,0.139 -0.688,0.337 -1.11,0.595 -0.424,0.258 -0.751,0.53 -0.983,0.813 -0.231,0.285 -0.43,0.652 -0.595,1.101 -0.165,0.45 -0.248,0.959 -0.248,1.528 0,1.309 0.447,2.291 1.339,2.945 0.893,0.654 2.179,0.982 3.858,0.982 1.627,0 2.955,-0.265 3.987,-0.794 0.33,-0.185 0.442,-0.423 0.337,-0.714 L 0.367,10.462 c -0.132,-0.357 -0.376,-0.469 -0.733,-0.337 -0.807,0.278 -1.706,0.417 -2.697,0.417 -1.416,0 -2.124,-0.39 -2.124,-1.17 0,-0.173 0.043,-0.334 0.129,-0.486 C -4.972,8.733 -4.879,8.611 -4.779,8.519 -4.681,8.426 -4.502,8.313 -4.244,8.182 -3.986,8.049 -3.781,7.95 -3.629,7.884 -3.478,7.818 -3.209,7.712 -2.825,7.566 -2.35,7.381 -2.026,7.256 -1.854,7.189 -1.683,7.124 -1.397,6.998 -1.001,6.812 -0.604,6.627 -0.323,6.469 -0.158,6.337 0.007,6.205 0.222,6.023 0.486,5.792 0.751,5.56 0.939,5.322 1.052,5.077 1.164,4.833 1.267,4.542 1.359,4.205 1.451,3.868 1.498,3.5 1.498,3.104 1.498,1.715 0.999,0.681 0,0" /></g></g></g></g></svg>